<?xml version="1.0" encoding="UTF-8" standalone="no"?>
<!-- Created with Inkscape (http://www.inkscape.org/) -->

<svg
   version="1.1"
   id="svg824"
   width="120.94485"
   height="120.94488"
   viewBox="32 32 120.94485 120.94488"
   sodipodi:docname="SVG_Horiseon_Logo.svg"
   inkscape:version="1.1 (c68e22c387, 2021-05-23)"
   xmlns:inkscape="http://www.inkscape.org/namespaces/inkscape"
   xmlns:sodipodi="http://sodipodi.sourceforge.net/DTD/sodipodi-0.dtd"
   xmlns="http://www.w3.org/2000/svg"
   xmlns:svg="http://www.w3.org/2000/svg">
  <defs
     id="defs828" />
  <sodipodi:namedview
     id="namedview826"
     pagecolor="#ffffff"
     bordercolor="#666666"
     borderopacity="1.0"
     inkscape:pageshadow="2"
     inkscape:pageopacity="0.0"
     inkscape:pagecheckerboard="0"
     showgrid="false"
     fit-margin-top="0"
     fit-margin-left="0"
     fit-margin-right="0"
     fit-margin-bottom="0"
     inkscape:zoom="1.4362606"
     inkscape:cx="-48.737673"
     inkscape:cy="38.642012"
     inkscape:window-width="2270"
     inkscape:window-height="1133"
     inkscape:window-x="104"
     inkscape:window-y="104"
     inkscape:window-maximized="0"
     inkscape:current-layer="g830" />
  <g
     inkscape:groupmode="layer"
     inkscape:label="Horiseon_logo"
     id="g830"
     transform="translate(231.76505,164.91143)">
    <path
       id="path123859"
       style="display:inline;opacity:1;fill:#2a607c;fill-opacity:1;fill-rule:evenodd;stroke:none;stroke-width:6.67085;stroke-linecap:round;stroke-dasharray:6.67085, 6.67085;stroke-opacity:1"
       d="m -107.79688,-65.659514 c -0.56661,-0.243701 -1.23801,-0.919974 -1.62123,-1.644986 -0.26807,-0.487403 -0.34727,-0.986992 -0.39601,-2.382184 -0.0975,-2.772107 0.36555,-3.947967 1.8698,-4.709535 0.90961,-0.487403 1.72175,-0.487403 2.60029,-0.06093 1.23252,0.548328 1.79852,1.827762 1.79852,4.02717 0,2.217685 -0.60316,3.844394 -1.65839,4.496296 -0.62266,0.365552 -2.01297,0.548329 -2.59359,0.304627 z m -17.41198,-6.565323 c 0.17668,-0.749383 0.92789,-1.675449 1.66021,-2.047094 1.28918,-0.651902 3.47762,-0.365553 4.28915,0.548329 0.31072,0.365552 0.75425,1.352544 0.75425,1.705911 0,0.182777 -0.45084,0.243702 -3.40268,0.243702 h -3.40268 z m -44.72957,6.062079 c -0.52396,-0.365552 -0.8956,-0.773752 -1.19901,-1.358637 -0.38992,-0.749382 -0.43866,-1.011362 -0.43866,-2.315166 0,-1.949613 0.23151,-2.94879 0.82736,-3.631155 1.02903,-1.169768 2.71849,-1.553598 3.97965,-0.901696 1.4287,0.737198 2.01419,3.271695 1.3568,5.873211 -0.51786,2.059279 -1.34766,2.845217 -2.98107,2.845217 -0.6251,0 -0.94008,-0.121851 -1.54507,-0.487403 z m 3.64394,3.107197 c 1.82289,-0.487404 3.40939,-1.980076 4.1868,-3.990615 0.26197,-0.67018 0.35946,-1.34036 0.41429,-2.790385 0.10966,-2.906142 -0.329,-4.374445 -1.73028,-5.781822 -0.95592,-0.956529 -2.69534,-1.803392 -3.98087,-1.937428 -1.29527,-0.121851 -3.09318,0.12185 -4.09113,0.633624 -1.03512,0.487403 -2.33405,1.766837 -2.81963,2.735551 -1.04243,2.08365 -1.09117,5.720897 -0.10357,7.845976 0.72562,1.565783 2.26216,2.85131 3.93456,3.302158 1.01075,0.243702 3.07917,0.243702 4.19044,-0.0262 z m 32.0981,0.0067 c 2.47967,-0.548329 3.84073,-2.101927 3.77494,-4.368353 -0.0465,-1.602339 -1.24227,-2.796477 -4.45608,-4.441463 -1.75343,-0.895604 -2.05319,-1.169768 -2.05319,-1.876503 0,-0.487404 0.7305,-1.133213 1.40616,-1.279434 0.5727,-0.121851 2.14457,0.243702 2.86593,0.69455 l 0.52396,0.304627 0.43866,-1.133213 c 0.23761,-0.627532 0.43866,-1.224601 0.43866,-1.328174 0,-0.121851 -0.58488,-0.365553 -1.29892,-0.621439 -1.63707,-0.548329 -3.83282,-0.615347 -5.0958,-0.182777 -1.67118,0.609254 -2.74164,1.986169 -2.73494,3.588508 0.007,1.699819 0.94312,2.845217 3.3911,4.161206 2.78856,1.492673 3.15898,1.84604 2.97255,2.839124 -0.2437,1.297712 -2.00018,1.547506 -4.06798,0.609255 -0.59707,-0.304627 -1.11128,-0.487404 -1.14175,-0.426478 -0.0303,0.03046 -0.29853,0.615346 -0.59706,1.303804 l -0.54224,1.248971 0.58488,0.304627 c 1.58711,0.828586 3.61471,1.060102 5.59965,0.639717 z m 29.10813,0.05727 c 1.16854,-0.243702 2.46077,-0.932159 3.25646,-1.730282 1.29283,-1.291619 1.908794,-3.064549 1.908794,-5.495473 0,-3.332621 -1.184394,-5.525936 -3.598254,-6.668897 -1.01563,-0.487403 -1.1125,-0.487403 -3.17361,-0.487403 -1.85578,0.0018 -2.22133,0.0463 -2.87567,0.365552 -0.92241,0.426478 -2.21342,1.614524 -2.74652,2.522313 -1.74673,2.979253 -1.3105,7.867908 0.87916,9.846157 1.66204,1.504858 4.10941,2.144575 6.34933,1.669356 z m -14.0157,-0.182777 c 0.45694,-0.121851 1.20267,-0.365552 1.6523,-0.548329 l 0.81822,-0.426477 -0.53614,-1.041825 c -0.81031,-1.577969 -0.6982,-1.504858 -1.64194,-1.017455 -0.67018,0.365553 -1.09726,0.426478 -2.2122,0.487404 -0.84625,0.04082 -1.60782,-0.0085 -1.96545,-0.121851 -1.20876,-0.426478 -2.27739,-1.779022 -2.28531,-2.954883 l -0.003,-0.487403 h 5.02268 5.02269 l 0.10357,-1.218509 c 0.21324,-2.54059 -0.97602,-5.038532 -2.89822,-6.086449 -2.7063,-1.474396 -6.05719,-1.212416 -8.32417,0.645809 -2.74956,2.254241 -3.43192,7.032621 -1.44332,10.109964 0.87063,1.346452 2.22134,2.357814 3.57449,2.674626 0.86514,0.182777 4.14171,0.182777 5.1153,-0.0037 z m -69.79499,-4.155113 v -4.173392 h 3.70061 3.7006 v 4.173392 4.173391 h 1.88991 1.8899 v -9.606111 -9.606721 h -1.88686 -1.88686 l -0.0422,3.820024 -0.0422,3.820024 -3.66161,0.04204 -3.66161,0.04265 v -3.862671 -3.862672 h -1.73211 -1.73211 v 9.60672 9.606112 h 1.73211 1.73211 z m 33.25239,-0.426478 c 0.054,-4.471926 0.067,-4.630332 0.42648,-5.36753 0.41429,-0.846863 1.24592,-1.492673 2.08425,-1.620616 0.329,-0.04996 0.88647,0.04082 1.4415,0.243701 l 0.90779,0.304628 0.71892,-1.431748 c 0.53614,-1.072287 0.66896,-1.46221 0.51786,-1.553598 -0.42038,-0.243702 -2.26216,-0.487403 -3.23635,-0.426478 -0.80727,0.06093 -1.20572,0.182776 -1.9155,0.639717 -0.88951,0.548329 -0.89621,0.548329 -0.94373,0.182776 -0.0398,-0.304627 -0.17059,-0.365552 -0.7701,-0.487403 -0.39601,-0.05422 -1.17281,-0.121851 -1.72358,-0.121851 h -1.00161 v 7.086236 7.086845 h 1.71627 1.71627 z m 12.41671,-2.479665 v -7.086236 h -2.67706 -2.67706 v 1.492673 1.498765 h 0.94495 0.94495 v 5.592954 5.592954 h 1.73211 1.73211 z m 49.328464,1.852133 0.0415,-5.233494 0.75243,-0.487403 c 1.43662,-0.962622 2.93294,-0.889511 4.00645,0.182776 l 0.67444,0.676272 v 5.062903 5.062902 h 1.72967 1.72967 l 0.0423,-3.637248 c 0.057,-4.910588 -0.067,-6.969258 -0.46304,-7.871564 -0.45694,-1.02964 -1.20084,-1.803392 -2.21646,-2.296888 -0.74268,-0.365553 -1.14479,-0.426478 -2.43702,-0.487404 -1.76013,-0.06093 -2.60577,0.121851 -3.6677,0.785938 -0.38993,0.243702 -0.74451,0.426478 -0.78472,0.426478 -0.0403,0 -0.0731,-0.182776 -0.0731,-0.487403 v -0.487403 l -1.06315,-0.0018 c -0.58488,-0.0012 -1.22216,-0.04509 -1.41712,-0.121851 l -0.35337,-0.121851 v 7.104513 7.105123 h 1.73028 1.73028 l 0.0415,-5.233494 z m -49.913164,-10.74907 c 0.38992,-0.182777 0.78106,-0.974807 0.79995,-1.675449 0.0319,-1.218509 -1.20632,-2.089742 -2.44372,-1.718097 -1.15575,0.365552 -1.69555,1.285526 -1.38483,2.412646 0.329,1.188046 1.56578,1.590154 3.0286,0.986992 z m -55.9505,6.693266 v -60.472135 l 60.43284,0.0396 60.432904,0.0396 0.0395,60.432534 0.0396,60.433144 h -60.472404 -60.47244 z"
       sodipodi:nodetypes="ssssssssssssscsssssssssssssssssssssssssscsssssssssscssssssssssssscssscscccssssssscccccccccccccccccccccccccsssscssssssscccccscccccccccccccccsscccccsssssssccscccccccsssssccccccccc"
       inkscape:label="plaque" />
    <path
       id="path126061"
       style="opacity:1;fill:#d9dcd6;fill-opacity:1;fill-rule:evenodd;stroke:none;stroke-width:6.67085;stroke-linecap:round;stroke-dasharray:6.67085, 6.67085;stroke-opacity:1"
       d="m -108.82256,-63.256006 c -2.4291,-0.840771 -3.85231,-2.485757 -4.31656,-4.995884 -0.33509,-1.815578 -0.18278,-3.600693 0.46303,-5.31879 0.39601,-1.066194 1.72358,-2.583237 2.81597,-3.222954 0.66957,-0.365553 0.88037,-0.426478 2.77881,-0.487404 2.43335,-0.06093 3.01824,0.06093 4.34519,0.962622 1.89478,1.279434 2.68376,3.076734 2.68072,6.098635 -10e-4,1.376914 -0.0792,2.053186 -0.32291,2.820847 -0.62631,1.986168 -2.01114,3.411823 -3.99304,4.106373 -1.16612,0.426478 -3.32044,0.426478 -4.45487,0.03351 z m 3.30885,-2.534497 c 0.78168,-0.365553 1.07412,-0.682365 1.51644,-1.681542 0.42647,-0.956529 0.59707,-3.5946 0.31072,-4.861849 -0.55442,-2.485757 -3.12974,-3.247324 -5.10555,-1.517043 -0.79629,0.700643 -1.05523,1.651079 -1.04609,3.850487 0.009,2.339536 0.36555,3.241232 1.64438,4.161206 0.59707,0.426478 1.7973,0.426478 2.6795,0.04204 z m -32.99205,2.528405 c -0.75425,-0.243702 -1.52252,-0.609255 -1.71383,-0.755476 -0.0914,-0.06092 0.96628,-2.424831 1.09239,-2.424831 0.0601,0 0.52396,0.182776 1.03452,0.426478 0.61169,0.243701 1.30928,0.426478 2.05866,0.487403 1.0991,0.06092 1.14845,0.06092 1.61453,-0.426478 0.34727,-0.365552 0.48131,-0.627532 0.48131,-1.011362 0,-0.71892 -0.60316,-1.267249 -2.67706,-2.424832 -2.18601,-1.224601 -3.35699,-2.357813 -3.59887,-3.484934 -0.28634,-1.340359 0.11576,-2.571053 1.15454,-3.478841 0.98943,-0.871234 1.5408,-1.02964 3.54647,-1.035732 1.84664,-0.0061 3.17055,0.243701 3.85718,0.755475 0.31072,0.243701 0.31072,0.243701 -0.0731,1.346452 -0.21324,0.615346 -0.39601,1.114935 -0.41429,1.114935 -0.0143,0 -0.44476,-0.182777 -0.95044,-0.426478 -0.68175,-0.304627 -1.18012,-0.426478 -1.89782,-0.426478 -0.86941,-0.0049 -1.02599,0.04447 -1.46404,0.487403 -0.39601,0.365553 -0.48131,0.548329 -0.44475,1.023547 0.0529,0.627532 0.38992,0.889511 2.97254,2.284704 1.69617,0.919973 2.99997,2.095834 3.28997,2.979253 0.25588,0.779845 0.12795,2.065371 -0.28025,2.869587 -0.43257,0.846863 -1.04792,1.383007 -2.15371,1.894781 -0.82554,0.365552 -1.17404,0.426478 -2.75566,0.487403 -1.43053,0.03838 -1.99287,-0.01219 -2.67706,-0.243702 z m 13.58373,-0.182777 c -1.72175,-0.676272 -3.22965,-2.583237 -3.73472,-4.727812 -0.29854,-1.267249 -0.29854,-2.13239 -0.004,-3.527582 1.01745,-4.807016 5.73124,-7.078925 10.25392,-4.947144 1.87894,0.883418 3.03408,2.772106 3.17116,5.17866 0.0436,0.761568 0.033,1.571876 -0.0234,1.7973 l -0.10358,0.426478 h -4.95749 -4.9575 v 0.548329 c 0,1.169768 1.31538,2.784292 2.43884,2.997531 1.07655,0.182776 3.25403,-0.0043 3.97234,-0.365553 0.36555,-0.182776 0.72805,-0.365552 0.80726,-0.365552 0.12185,0 1.28552,2.028816 1.28552,2.248148 0,0.04021 -0.44475,0.304627 -0.98394,0.548329 -0.94861,0.426478 -1.08143,0.426478 -3.66162,0.487403 -2.38401,0.03351 -2.76723,0.0018 -3.5026,-0.304627 z m 6.36725,-8.892065 c -0.23761,-1.456117 -1.20206,-2.150667 -3.11572,-2.248148 -0.97968,-0.04935 -1.31172,-0.0012 -1.83507,0.243702 -0.76035,0.365552 -1.5012,1.242878 -1.73272,1.992261 l -0.1645,0.548329 h 3.47031 3.47031 z"
       inkscape:label="SEO" />
  </g>
</svg>
